<svg width="1920" height="1080" viewBox="0 0 1920 1080" fill="none" xmlns="http://www.w3.org/2000/svg">
<g clip-path="url(#clip0_2_22)">
<path d="M1372.5 602.5C988.5 714 465 1075.5 0.000732422 797V909C486 1228.5 1281.5 866.612 1537.5 838C1793.5 809.388 1920 829 1920 829V507C1920 507 1756.5 491 1372.5 602.5Z" fill="url(#paint0_linear_2_22)"/>
<path d="M1373 708C989 819.5 465 1095.5 0.000732422 817V885.5C438.5 1158.5 1075.5 863.5 1234.5 817C1393.5 770.5 1665.5 670 1920 698.5V640C1920 640 1757 596.5 1373 708Z" fill="#4DFF00"/>
<path d="M1938.5 670C1897.09 663.179 1857.46 660.971 1815.5 660C1759.73 658.71 1728.28 662.528 1673 670C1624.12 676.607 1597.03 682.796 1549 694C1492.71 707.13 1462.01 717.892 1406.5 734C1337.74 753.952 1299.24 765.328 1231 787C1129.54 819.224 1074.61 843.255 973 875C924.175 890.254 896.995 899.585 847.5 912.5C800.243 924.831 773.416 930.546 725.5 940C677.314 949.508 650.247 955.005 601.5 961C548.064 967.572 517.839 971.087 464 971C411.33 970.915 381.763 971.535 329.5 965C281.529 959.001 254.11 952.833 207.5 940C176.005 931.328 158.92 924.407 128.5 912.5C78.1461 892.79 -21 838.5 -21 838.5" stroke="black" stroke-width="10"/>
</g>
<defs>
<linearGradient id="paint0_linear_2_22" x1="0.000732422" y1="773.092" x2="1920" y2="773.092" gradientUnits="userSpaceOnUse">
<stop stop-color="#4DFF00"/>
<stop offset="1" stop-color="#0C2600"/>
</linearGradient>
<clipPath id="clip0_2_22">
<rect width="1920" height="1080" fill="white"/>
</clipPath>
</defs>
</svg>
